# xmcd CD database file
#
# Track frame offsets:
#	150
#	16350
#	39203
#	50187
#	67374
#	83491
#	100827
#	109668
#	129163
#
# Disc length: 1971 seconds
#
# Revision: 0
# Processed by: cddbd v1.5.1PL0 Copyright (c) Steve Scherf et al.
# Submitted via: CDex 1.51
#
DISCID=6f07b109
DTITLE=choro azul - choro azul
DYEAR=2002
DGENRE=JPop
TTITLE0=WHERE DID YOU COME FROM?
TTITLE1=NOT A HAPPY PLACE
TTITLE2=O MUNDO E UM MOINHO〜人生は風車〜
TTITLE3=MINHA〜僕の女〜
TTITLE4=GRAND MOHTER'S EYE
TTITLE5=LITTLE WING
TTITLE6=HOIA
TTITLE7=SMILING HOUR
TTITLE8=ENCOMENDA SEM SELO〜切手のない贈り物〜
EXTD=YEAR: 2002
EXTT0=
EXTT1=
EXTT2=
EXTT3=
EXTT4=
EXTT5=
EXTT6=
EXTT7=
EXTT8=
PLAYORDER=
